<svg xmlns="http://www.w3.org/2000/svg" width="229.369" height="50" viewBox="0 0 229.369 50">
  <g id="Group_204" data-name="Group 204" transform="translate(-795.467 -530.16)">
    <rect id="Rectangle_4" data-name="Rectangle 4" width="57.086" height="29.145" transform="translate(967.75 530.341)" fill="#3ec75e"/>
    <g id="Group_202" data-name="Group 202">
      <g id="Group_201" data-name="Group 201">
        <path id="Path_73" data-name="Path 73" d="M814.611,531.476c7.3,0,11.25,2.237,11.25,2.237a6.541,6.541,0,0,1-1.973,5A25.594,25.594,0,0,0,815.4,537.2c-7.632,0-12.961,4.013-12.961,18.684s5.329,18.42,12.961,18.42a28.166,28.166,0,0,0,9.144-1.513,7.377,7.377,0,0,1,2.04,5.132s-4.277,2.237-11.974,2.237c-12.565,0-19.144-8.29-19.144-24.342C795.467,539.9,801.98,531.476,814.611,531.476Z"/>
        <path id="Path_74" data-name="Path 74" d="M838.1,564.239c.526,7.828,3.684,10.328,9.144,10.328A15.952,15.952,0,0,0,855,572.66a6.778,6.778,0,0,1,2.1,4.737s-3.75,2.763-10.921,2.763c-10.131,0-14.868-6.25-14.868-18.158,0-12.434,5.855-17.763,14.605-17.763,8.092,0,13.026,4.474,13.026,13.223a28.084,28.084,0,0,1-.723,6.777Zm7.828-14.8c-4.276,0-7.3,2.828-7.828,10.131h14.078a22.87,22.87,0,0,0,.2-2.961C852.371,552.725,850.793,549.437,845.924,549.437Z"/>
        <path id="Path_75" data-name="Path 75" d="M890.393,530.16a8.775,8.775,0,0,1,3.224.461v48.42a7.928,7.928,0,0,1-2.763.46,9.946,9.946,0,0,1-2.96-.46l-.461-3.553c-1.908,2.9-4.934,4.672-9.868,4.672-7.5,0-12.368-4.54-12.368-17.961s4.868-17.96,12.368-17.96c4.6,0,7.566,1.579,9.474,4.276V530.621A9.619,9.619,0,0,1,890.393,530.16Zm-10.526,19.474c-5.263,0-7.894,2.763-7.894,12.565s2.631,12.565,7.894,12.565c4.606,0,7.172-3.881,7.172-8.42v-8.487C886.973,553.449,884.407,549.634,879.867,549.634Z"/>
        <path id="Path_76" data-name="Path 76" d="M915.193,544.239c9.539,0,12.565,4.276,12.565,12.763v22.039a5.179,5.179,0,0,1-2.566.46,6.743,6.743,0,0,1-2.631-.46l-.987-4.211c-1.71,3.487-5.329,5.33-10.329,5.33-6.184,0-10.2-3.619-10.2-10.987,0-7.171,4.408-10.329,12.632-10.329a70.3,70.3,0,0,1,7.5.4V556.8c0-4.474-1.71-7.04-6.776-7.04a27.4,27.4,0,0,0-8.816,1.645,5.218,5.218,0,0,1-1.513-1.973,5.69,5.69,0,0,1-.394-2.764A28.569,28.569,0,0,1,915.193,544.239Zm-.658,19.079c-4.408,0-6.711,1.71-6.711,5.855,0,4.276,2.171,5.921,5.724,5.921,5.2,0,7.631-4.408,7.631-9.079v-2.3C919.666,563.581,917.035,563.318,914.535,563.318Z"/>
        <path id="Path_77" data-name="Path 77" d="M951.7,544.3a10.344,10.344,0,0,1,5.724,1.646,7.444,7.444,0,0,1-2.9,5.525,6.647,6.647,0,0,0-4.079-1.381c-2.566,0-5.066,1.974-6.776,5v23.947a9.435,9.435,0,0,1-3.289.46,8.58,8.58,0,0,1-3.29-.46V545.357a8.579,8.579,0,0,1,3.29-.46,9.434,9.434,0,0,1,3.289.46v4.54C946.176,545.752,949.071,544.3,951.7,544.3Z"/>
      </g>
    </g>
    <g id="Group_203" data-name="Group 203">
      <path id="Path_78" data-name="Path 78" d="M978.809,533.587a17.918,17.918,0,0,1,5.974.892,4.561,4.561,0,0,1-1.01,2.973,15.284,15.284,0,0,0-4.429-.654c-2.883,0-4.251.951-4.251,2.883,0,1.873,2.586,2.378,5.172,3.3,2.675.981,5.351,2.408,5.351,6.212,0,4.132-2.586,6.391-7.669,6.391a15.729,15.729,0,0,1-6.629-1.308,5.553,5.553,0,0,1,.892-3.031,21.086,21.086,0,0,0,5.588.921c2.765,0,3.924-.98,3.924-2.883,0-1.6-1.338-2.348-3.092-2.972-3.061-1.1-7.312-1.814-7.312-6.451C971.318,536.114,973.755,533.587,978.809,533.587Z" fill="#fff"/>
      <path id="Path_79" data-name="Path 79" d="M989.807,534.152a5.194,5.194,0,0,1,1.872-.267,5.577,5.577,0,0,1,1.932.267v20.867a5.693,5.693,0,0,1-1.9.267,4.725,4.725,0,0,1-1.9-.267Z" fill="#fff"/>
      <path id="Path_80" data-name="Path 80" d="M1016.439,533.885a10.627,10.627,0,0,1,2.467.267v20.867a5.389,5.389,0,0,1-1.872.267,6.008,6.008,0,0,1-1.932-.267v-6.51a93.593,93.593,0,0,1,.208-9.839h-.179a62.7,62.7,0,0,1-3.269,7.52l-2.081,4.37a3.806,3.806,0,0,1-1.1.149,2.31,2.31,0,0,1-.951-.149c-.684-1.4-1.4-2.794-2.081-4.221a51.648,51.648,0,0,1-3.358-7.669h-.179c.446,2.081.357,5.945.357,9.1v7.253a5.792,5.792,0,0,1-3.478,0V534.152a9.04,9.04,0,0,1,2.289-.267,11.258,11.258,0,0,1,2.259.267l2.705,5.44a49.278,49.278,0,0,1,2.556,5.826h.149a22.639,22.639,0,0,1,1.189-3.092c1.337-2.7,2.615-5.439,3.864-8.174A12.22,12.22,0,0,1,1016.439,533.885Z" fill="#fff"/>
    </g>
  </g>
</svg>
